<?xml version="1.0" encoding="UTF-8"?>
<svg version="1.1" xmlns="http://www.w3.org/2000/svg" width="216" height="207">
<path d="M0 0 C0.93779297 -0.02320312 1.87558594 -0.04640625 2.84179688 -0.0703125 C9.9174806 -0.01130749 14.8324426 1.92322077 20.0625 6.75 C24.62954974 13.31376419 24.53592605 19.97792232 24.0625 27.75 C25.09375 27.935625 26.125 28.12125 27.1875 28.3125 C43.2606371 32.45126193 56.53425204 42.96639601 65.57421875 56.6328125 C66.89103223 58.86199218 66.89103223 58.86199218 69.0625 59.75 C70.29898282 62.00546385 71.42293271 64.23198355 72.5 66.5625 C72.81275879 67.23667969 73.12551758 67.91085938 73.44775391 68.60546875 C78.37255562 79.55521142 80.30653074 90.79249388 80.0625 102.75 C81.320625 102.79125 82.57875 102.8325 83.875 102.875 C91.07939315 103.72591258 97.39058958 106.75784272 102.24609375 112.1953125 C109.48094561 122.27296477 110.40924696 131.58669243 109.0625 143.75 C107.94580331 147.59845058 106.39568336 150.51491383 104.0625 153.75 C103.4025 154.8225 102.7425 155.895 102.0625 157 C96.93319275 162.55807287 89.10603643 165.73563834 81.65625 166.125 C77.77734246 166.18388123 73.93161391 166.01820559 70.0625 165.75 C70.0625 168.72 70.0625 171.69 70.0625 174.75 C70.743125 173.986875 71.42375 173.22375 72.125 172.4375 C75.83720651 169.04122596 79.10944018 166.97879563 84.23046875 166.58203125 C89.49804476 166.82682394 93.39716151 168.45328658 97.4609375 171.8046875 C100.34603636 175.30902709 100.95661198 179.29564413 101.0625 183.75 C100.40170617 188.77051406 98.53902192 192.11177939 95.0625 195.75 C90.18546781 198.60260373 85.61646273 199.71590656 80.0625 198.75 C74.56176161 196.37899207 70.10882661 193.01282949 67.0625 187.75 C66.6875 183.8125 66.6875 183.8125 67.0625 180.75 C66.505625 181.348125 65.94875 181.94625 65.375 182.5625 C63.01440219 184.79549793 61.02899476 186.41507736 58.0625 187.75 C56.0625 187.1875 56.0625 187.1875 54.0625 185.75 C53.19625 185.151875 52.33 184.55375 51.4375 183.9375 C48.83449821 181.53999835 47.87783713 180.17441596 47.0625 176.75 C47.20937493 173.22500165 47.9024519 171.05009019 49.5625 167.9375 C52.67471115 165.21431525 54.81760302 164.85532304 58.87109375 164.6015625 C62.36527349 164.83824491 64.63276001 166.32026001 67.0625 168.75 C66.86155284 166.80610287 66.86155284 166.80610287 66.0625 164.75 C64.28781753 163.4770761 64.28781753 163.4770761 62.125 162.625 C59.53040013 161.48544797 58.09700153 160.78450153 56.0625 158.75 C52.34108908 159.06414508 49.87069856 161.14543539 46.9375 163.3125 C42.27577968 166.75 42.27577968 166.75 40.0625 166.75 C40.0625 167.41 40.0625 168.07 40.0625 168.75 C19.24525975 175.74037212 1.60658896 178.60086881 -19.9375 172.75 C-18.75811999 176.28814003 -18.14577463 176.42980861 -15 178.125 C-12.07211167 179.84821156 -11.07944793 180.48384763 -9.4375 183.5625 C-9.2725 184.284375 -9.1075 185.00625 -8.9375 185.75 C-8.2775 185.75 -7.6175 185.75 -6.9375 185.75 C-6.55809164 192.95875879 -7.46807196 197.90065996 -12.375 203.5625 C-16.99246867 207.50424155 -20.41773679 208.20842927 -26.40234375 208.05859375 C-30.56747123 207.55159056 -32.60088829 206.35255713 -35.9375 203.75 C-40.31259996 198.10842374 -40.68388098 192.76256579 -40.9375 185.75 C-40.2775 185.75 -39.6175 185.75 -38.9375 185.75 C-38.9375 185.09 -38.9375 184.43 -38.9375 183.75 C-39.989375 183.70875 -41.04125 183.6675 -42.125 183.625 C-47.18918537 182.46272795 -48.21513966 181.08876179 -50.9375 176.75 C-50.9375 174.6875 -50.9375 174.6875 -49.9375 172.75 C-49.56625 171.863125 -49.195 170.97625 -48.8125 170.0625 C-46.9375 167.75 -46.9375 167.75 -43.5625 166.8125 C-37.90526454 166.71496146 -37.90526454 166.71496146 -34.9375 168.75 C-33.7840885 171.82576399 -32.9375 174.4512566 -32.9375 177.75 C-32.421875 177.42 -31.90625 177.09 -31.375 176.75 C-28.15723488 175.42989123 -25.3804472 175.61757895 -21.9375 175.75 C-21.9375 174.1 -21.9375 172.45 -21.9375 170.75 C-22.63230469 170.65074219 -23.32710938 170.55148438 -24.04296875 170.44921875 C-36.41433323 167.4607245 -47.14355307 158.446261 -54.9375 148.75 C-55.44023438 148.14542969 -55.94296875 147.54085937 -56.4609375 146.91796875 C-64.16990319 137.23077641 -68.84364363 126.93424991 -70.9375 114.75 C-74.20140683 114.75 -76.20315689 116.04103556 -78.9375 117.75 C-80.17507877 120.71260526 -80.17507877 120.71260526 -80.9375 123.75 C-83.39159213 127.09950413 -86.31235546 127.60982891 -90.25 128.5 C-91.91482422 128.89445312 -91.91482422 128.89445312 -93.61328125 129.296875 C-98.58197757 129.9741591 -101.75588217 129.53774522 -105.9375 126.75 C-106.72411958 122.99842972 -107.27897254 120.15383153 -106.375 116.4375 C-104.29996543 114.00158985 -101.8366144 113.01048452 -98.9375 111.75 C-99.55625 110.76 -100.175 109.77 -100.8125 108.75 C-103.56282594 103.8033706 -105.51306133 99.74291889 -104.41015625 94.0078125 C-101.98418821 86.32384507 -98.42112091 82.41593676 -91.625 78.375 C-83.49499507 76.48430118 -77.19746716 77.82190183 -69.9375 81.75 C-69.65777344 80.79480469 -69.37804687 79.83960937 -69.08984375 78.85546875 C-63.5763244 60.76144253 -52.36234624 45.52401931 -35.9375 35.75 C-33.73077557 34.89168533 -31.52244813 34.03748005 -29.3125 33.1875 C-26.23320322 31.92846257 -26.23320322 31.92846257 -23.9375 29.75 C-22.89096356 25.67211662 -22.8025828 22.51575916 -22.9296875 18.30859375 C-22.93731457 14.8344633 -22.46087502 12.82627282 -20.9375 9.75 C-20.2775 9.75 -19.6175 9.75 -18.9375 9.75 C-18.9375 8.76 -18.9375 7.77 -18.9375 6.75 C-13.63185132 0.61430615 -7.71860274 -0.19019144 0 0 Z M10.0625 44.75 C10.0625 45.41 10.0625 46.07 10.0625 46.75 C9.51207031 46.58242188 8.96164063 46.41484375 8.39453125 46.2421875 C5.74914592 45.68386497 3.44866919 45.76048787 0.75 45.875 C-2.87119644 45.92796963 -5.49244256 45.79446472 -8.75 44.1875 C-12.42395205 42.53061966 -14.1145311 42.68312496 -17.9375 43.75 C-18.5975 44.08 -19.2575 44.41 -19.9375 44.75 C-19.9375 45.41 -19.9375 46.07 -19.9375 46.75 C-20.9275 46.42 -21.9175 46.09 -22.9375 45.75 C-25.78222315 47.46608441 -25.78222315 47.46608441 -28.75 49.875 C-29.29043945 50.2973291 -29.83087891 50.7196582 -30.38769531 51.15478516 C-31.90887592 52.34737237 -33.42341885 53.5484123 -34.9375 54.75 C-35.54464844 55.18828125 -36.15179688 55.6265625 -36.77734375 56.078125 C-47.46382594 64.01157992 -53.97500419 77.89423038 -55.9375 90.75 C-57.47762667 109.23152006 -53.92821483 124.97896327 -42.61328125 139.79296875 C-29.73086609 154.83282541 -14.72222733 160.21431869 4.49609375 161.97265625 C15.91620143 162.45460575 26.29424462 158.26619128 36.0625 152.75 C37.0009375 152.234375 37.939375 151.71875 38.90625 151.1875 C39.6178125 150.713125 40.329375 150.23875 41.0625 149.75 C41.0625 149.09 41.0625 148.43 41.0625 147.75 C41.701875 147.440625 42.34125 147.13125 43 146.8125 C44.99860821 145.9154837 44.99860821 145.9154837 46.0625 144.75 C46.05653131 142.43713236 46.00678583 140.12433733 45.9375 137.8125 C45.82791523 128.37367268 47.35092167 121.04118342 53.234375 113.5234375 C55.3044707 111.51526774 57.38475654 110.4495367 59.9375 109.125 C63.04401649 107.18670135 63.9144397 106.36974967 64.77734375 102.7578125 C65.1158644 90.59815063 61.63655647 78.92714511 55.0625 68.75 C54.0725 67.1721875 54.0725 67.1721875 53.0625 65.5625 C49.08298391 59.9663055 45.1493367 55.63916498 39.5625 51.6875 C38.95809082 51.25775879 38.35368164 50.82801758 37.73095703 50.38525391 C29.7212178 44.8976773 18.97218119 38.31523025 10.0625 44.75 Z M-91.9375 115.75 C-90.9475 117.235 -90.9475 117.235 -89.9375 118.75 C-89.9375 117.76 -89.9375 116.77 -89.9375 115.75 C-90.5975 115.75 -91.2575 115.75 -91.9375 115.75 Z M-90.9375 122.75 C-90.9375 123.74 -90.9375 124.73 -90.9375 125.75 C-89.6175 125.42 -88.2975 125.09 -86.9375 124.75 C-88.2575 124.09 -89.5775 123.43 -90.9375 122.75 Z " fill="#1D6491" transform="translate(106.9375,-0.75)"/>
<path d="M0 0 C-1.702698 1.135132 -3.41526987 2.25653447 -5.15625 3.33203125 C-10.19052045 6.51201208 -13.60092034 8.92241914 -15.59375 14.73046875 C-16.12680228 17.13393956 -16.12680228 17.13393956 -15.71875 20.13671875 C-15.46483127 24.25836385 -15.5961995 27.09527492 -17 31 C-20.58013775 34.18746262 -25.15603712 35.84350379 -29.48046875 37.79296875 C-44.89020142 44.85670494 -54.73638487 60.88120396 -61 76 C-61.95819711 79.05992165 -62.54580476 81.82063332 -63 85 C-66.01104226 84.38218355 -67.40010528 83.73054134 -70.0625 81.9375 C-74.80009254 79.15008025 -79.66245895 79.20178767 -85 80 C-90.00230198 82.45567552 -93.49851535 85.9970307 -96 91 C-96.98366481 98.4336955 -95.57025772 104.02648006 -91 110 C-85.84259616 113.43826922 -79.09860434 113.84156368 -73 113 C-69.67191761 111.11586085 -69.67191761 111.11586085 -67 109 C-66.01 109 -65.02 109 -64 109 C-63.79246094 110.06476563 -63.58492187 111.12953125 -63.37109375 112.2265625 C-61.2518315 122.4228571 -58.12580262 130.91465884 -53 140 C-51.68 139.67 -50.36 139.34 -49 139 C-49.25330078 137.92878906 -49.25330078 137.92878906 -49.51171875 136.8359375 C-50.00562776 133.96731399 -49.96278042 131.52500588 -49.8125 128.625 C-49.74428113 123.5706018 -50.57237828 119.40639547 -52 114.5625 C-56.67752133 98.21614433 -53.34061033 82.45597969 -45.2890625 67.765625 C-37.84911884 55.06078571 -25.71482797 45.82507546 -12.12109375 40.4609375 C-8.39372872 39.65093921 -5.67284128 41.11742551 -2.3125 42.625 C3.58609057 44.86164029 9.05632762 43.99484126 14.75 41.5 C15.8225 41.005 16.895 40.51 18 40 C22.68130756 38.43135133 26.19812625 39.71471093 30.625 41.4375 C31.33285645 41.71045898 32.04071289 41.98341797 32.77001953 42.26464844 C39.28971526 44.9068487 44.67320959 48.39059467 50 53 C50.87398437 53.75152344 51.74796875 54.50304688 52.6484375 55.27734375 C65.15815588 66.86667744 70.7268969 82.26854895 71.8125 99.0625 C71.651008 105.27025237 71.651008 105.27025237 69.19140625 108.02734375 C66.875 109.5 66.875 109.5 64.390625 110.76171875 C59.40738825 113.3429051 56.25454291 117.75818162 54.125 122.875 C52.01703691 129.93852545 52.77409575 137.71249611 53 145 C52.01 145.33 51.02 145.66 50 146 C49.814375 147.175625 49.814375 147.175625 49.625 148.375 C49 151 49 151 47 153 C48.32 153 49.64 153 51 153 C51 153.66 51 154.32 51 155 C52.32 155 53.64 155 55 155 C55.33 155.66 55.66 156.32 56 157 C56.66 156.34 57.32 155.68 58 155 C61.08915966 155.3600861 63.0184762 156.55479556 65.4375 158.4375 C72.28016777 163.75604687 79.73502738 163.79016295 88.05859375 163.25146484 C92.62904477 162.65946729 96.24702572 160.54161823 100 158 C101.36125 157.195625 101.36125 157.195625 102.75 156.375 C109.60870553 149.13525528 111.82701639 141.96652711 111.56518555 132.20825195 C111.04167247 123.26648848 108.85289356 117.42835452 102.375 111.0625 C97.56265722 107.0261119 93.10345148 105.19927468 87 104 C85.66533768 103.67202837 84.3315259 103.34048151 83 103 C82.89042969 101.91203125 82.78085938 100.8240625 82.66796875 99.703125 C80.26644164 76.90164095 73.57593923 58.72138256 55.8125 43.25 C47.23919775 36.54045911 37.42383733 32.05526267 27 29 C26.98582031 28.0821875 26.97164062 27.164375 26.95703125 26.21875 C26.66343373 18.66456519 26.35434453 12.65561199 21 7 C17.66741331 4.09982948 14.05003209 1.78201412 10 0 C15.41629469 -0.83327611 18.6824611 1.03218939 22.94140625 4.11328125 C27.30027208 8.108219 28.81659674 12.41681172 29.23046875 18.24609375 C29.24773294 21.17755241 29.17820259 24.07450748 29 27 C30.03125 27.185625 31.0625 27.37125 32.125 27.5625 C48.1981371 31.70126193 61.47175204 42.21639601 70.51171875 55.8828125 C71.82853223 58.11199218 71.82853223 58.11199218 74 59 C75.23648282 61.25546385 76.36043271 63.48198355 77.4375 65.8125 C77.75025879 66.48667969 78.06301758 67.16085938 78.38525391 67.85546875 C83.31005562 78.80521142 85.24403074 90.04249388 85 102 C86.258125 102.04125 87.51625 102.0825 88.8125 102.125 C96.01689315 102.97591258 102.32808958 106.00784272 107.18359375 111.4453125 C114.41844561 121.52296477 115.34674696 130.83669243 114 143 C112.88330331 146.84845058 111.33318336 149.76491383 109 153 C108.34 154.0725 107.68 155.145 107 156.25 C101.87069275 161.80807287 94.04353643 164.98563834 86.59375 165.375 C82.71484246 165.43388123 78.86911391 165.26820559 75 165 C75 167.97 75 170.94 75 174 C75.680625 173.236875 76.36125 172.47375 77.0625 171.6875 C80.77470651 168.29122596 84.04694018 166.22879563 89.16796875 165.83203125 C94.43554476 166.07682394 98.33466151 167.70328658 102.3984375 171.0546875 C105.28353636 174.55902709 105.89411198 178.54564413 106 183 C105.33920617 188.02051406 103.47652192 191.36177939 100 195 C95.12296781 197.85260373 90.55396273 198.96590656 85 198 C79.49926161 195.62899207 75.04632661 192.26282949 72 187 C71.625 183.0625 71.625 183.0625 72 180 C71.443125 180.598125 70.88625 181.19625 70.3125 181.8125 C67.95190219 184.04549793 65.96649476 185.66507736 63 187 C61 186.4375 61 186.4375 59 185 C58.13375 184.401875 57.2675 183.80375 56.375 183.1875 C53.77199821 180.78999835 52.81533713 179.42441596 52 176 C52.14687493 172.47500165 52.8399519 170.30009019 54.5 167.1875 C57.61221115 164.46431525 59.75510302 164.10532304 63.80859375 163.8515625 C67.30277349 164.08824491 69.57026001 165.57026001 72 168 C71.79905284 166.05610287 71.79905284 166.05610287 71 164 C69.22531753 162.7270761 69.22531753 162.7270761 67.0625 161.875 C64.46790013 160.73544797 63.03450153 160.03450153 61 158 C57.27858908 158.31414508 54.80819856 160.39543539 51.875 162.5625 C47.21327968 166 47.21327968 166 45 166 C45 166.66 45 167.32 45 168 C24.18275975 174.99037212 6.54408896 177.85086881 -15 172 C-13.82061999 175.53814003 -13.20827463 175.67980861 -10.0625 177.375 C-7.13461167 179.09821156 -6.14194793 179.73384763 -4.5 182.8125 C-4.335 183.534375 -4.17 184.25625 -4 185 C-3.34 185 -2.68 185 -2 185 C-1.62059164 192.20875879 -2.53057196 197.15065996 -7.4375 202.8125 C-12.05496867 206.75424155 -15.48023679 207.45842927 -21.46484375 207.30859375 C-25.62997123 206.80159056 -27.66338829 205.60255713 -31 203 C-35.37509996 197.35842374 -35.74638098 192.01256579 -36 185 C-35.34 185 -34.68 185 -34 185 C-34 184.34 -34 183.68 -34 183 C-35.051875 182.95875 -36.10375 182.9175 -37.1875 182.875 C-42.25168537 181.71272795 -43.27763966 180.33876179 -46 176 C-46 173.9375 -46 173.9375 -45 172 C-44.62875 171.113125 -44.2575 170.22625 -43.875 169.3125 C-42 167 -42 167 -38.625 166.0625 C-32.96776454 165.96496146 -32.96776454 165.96496146 -30 168 C-28.8465885 171.07576399 -28 173.7012566 -28 177 C-27.484375 176.67 -26.96875 176.34 -26.4375 176 C-23.21973488 174.67989123 -20.4429472 174.86757895 -17 175 C-17 173.35 -17 171.7 -17 170 C-17.69480469 169.90074219 -18.38960938 169.80148438 -19.10546875 169.69921875 C-31.47683323 166.7107245 -42.20605307 157.696261 -50 148 C-50.50273438 147.39542969 -51.00546875 146.79085937 -51.5234375 146.16796875 C-59.23240319 136.48077641 -63.90614363 126.18424991 -66 114 C-69.26390683 114 -71.26565689 115.29103556 -74 117 C-75.23757877 119.96260526 -75.23757877 119.96260526 -76 123 C-78.45409213 126.34950413 -81.37485546 126.85982891 -85.3125 127.75 C-86.97732422 128.14445312 -86.97732422 128.14445312 -88.67578125 128.546875 C-93.64447757 129.2241591 -96.81838217 128.78774522 -101 126 C-101.78661958 122.24842972 -102.34147254 119.40383153 -101.4375 115.6875 C-99.36246543 113.25158985 -96.8991144 112.26048452 -94 111 C-94.61875 110.01 -95.2375 109.02 -95.875 108 C-98.62532594 103.0533706 -100.57556133 98.99291889 -99.47265625 93.2578125 C-97.04668821 85.57384507 -93.48362091 81.66593676 -86.6875 77.625 C-78.55749507 75.73430118 -72.25996716 77.07190183 -65 81 C-64.72027344 80.04480469 -64.44054687 79.08960937 -64.15234375 78.10546875 C-58.6388244 60.01144253 -47.42484624 44.77401931 -31 35 C-28.79327557 34.14168533 -26.58494813 33.28748005 -24.375 32.4375 C-21.29570322 31.17846257 -21.29570322 31.17846257 -19 29 C-17.95346356 24.92211662 -17.8650828 21.76575916 -17.9921875 17.55859375 C-17.99981457 14.0844633 -17.52337502 12.07627282 -16 9 C-15.34 9 -14.68 9 -14 9 C-14 8.01 -14 7.02 -14 6 C-9.95982392 1.7855016 -5.99202257 -0.89880339 0 0 Z M15 44 C15 44.66 15 45.32 15 46 C14.44957031 45.83242188 13.89914063 45.66484375 13.33203125 45.4921875 C10.68664592 44.93386497 8.38616919 45.01048787 5.6875 45.125 C2.06630356 45.17796963 -0.55494256 45.04446472 -3.8125 43.4375 C-7.48645205 41.78061966 -9.1770311 41.93312496 -13 43 C-13.66 43.33 -14.32 43.66 -15 44 C-15 44.66 -15 45.32 -15 46 C-15.99 45.67 -16.98 45.34 -18 45 C-20.84472315 46.71608441 -20.84472315 46.71608441 -23.8125 49.125 C-24.35293945 49.5473291 -24.89337891 49.9696582 -25.45019531 50.40478516 C-26.97137592 51.59737237 -28.48591885 52.7984123 -30 54 C-30.60714844 54.43828125 -31.21429688 54.8765625 -31.83984375 55.328125 C-42.52632594 63.26157992 -49.03750419 77.14423038 -51 90 C-52.54012667 108.48152006 -48.99071483 124.22896327 -37.67578125 139.04296875 C-24.79336609 154.08282541 -9.78472733 159.46431869 9.43359375 161.22265625 C20.85370143 161.70460575 31.23174462 157.51619128 41 152 C41.9384375 151.484375 42.876875 150.96875 43.84375 150.4375 C44.5553125 149.963125 45.266875 149.48875 46 149 C46 148.34 46 147.68 46 147 C46.639375 146.690625 47.27875 146.38125 47.9375 146.0625 C49.93610821 145.1654837 49.93610821 145.1654837 51 144 C50.99403131 141.68713236 50.94428583 139.37433733 50.875 137.0625 C50.76541523 127.62367268 52.28842167 120.29118342 58.171875 112.7734375 C60.2419707 110.76526774 62.32225654 109.6995367 64.875 108.375 C67.98151649 106.43670135 68.8519397 105.61974967 69.71484375 102.0078125 C70.0533644 89.84815063 66.57405647 78.17714511 60 68 C59.01 66.4221875 59.01 66.4221875 58 64.8125 C54.02048391 59.2163055 50.0868367 54.88916498 44.5 50.9375 C43.89559082 50.50775879 43.29118164 50.07801758 42.66845703 49.63525391 C34.6587178 44.1476773 23.90968119 37.56523025 15 44 Z M-87 115 C-86.01 116.485 -86.01 116.485 -85 118 C-85 117.01 -85 116.02 -85 115 C-85.66 115 -86.32 115 -87 115 Z M-86 122 C-86 122.99 -86 123.98 -86 125 C-84.68 124.67 -83.36 124.34 -82 124 C-83.32 123.34 -84.64 122.68 -86 122 Z " fill="#1F6591" transform="translate(102,0)"/>
<path d="M0 0 C3.625 0.4375 3.625 0.4375 6.0625 2.9375 C6.578125 3.7625 7.09375 4.5875 7.625 5.4375 C8.19347656 5.18613281 8.76195312 4.93476562 9.34765625 4.67578125 C13.61421236 2.98767808 15.8722113 2.25238802 20.4375 3.375 C24.17322909 5.79223647 25.81267644 7.359772 27.625 11.4375 C28.03113 15.40777089 27.82054419 18.90037175 25.3125 22.125 C22.69771208 24.42601337 21.14660273 25.4375 17.625 25.4375 C17.955 26.4275 18.285 27.4175 18.625 28.4375 C19.553125 27.798125 20.48125 27.15875 21.4375 26.5 C26.13318514 23.4616155 30.12366013 22.87014267 35.625 23.4375 C42.2726501 25.69094071 47.53790888 28.883174 50.89453125 35.25390625 C52.91461296 41.29254622 52.58266966 48.13191905 50 53.9375 C47.27552039 58.56144075 43.54612399 60.62000043 38.6875 62.6875 C30.72786863 64.63679748 24.77053701 62.79291875 17.875 58.875 C13.81213489 54.4735628 11.71952821 49.45452545 11.53125 43.4453125 C11.86143994 38.99954075 12.11797191 36.19804214 14.625 32.4375 C14.79199232 29.31228167 14.79199232 29.31228167 14.625 26.4375 C13.531875 26.025 12.43875 25.6125 11.3125 25.1875 C8.01698218 23.94390837 6.39733414 22.506664 4.625 19.4375 C4.33203125 16.859375 4.33203125 16.859375 4.4375 14.1875 C4.46457031 13.29546875 4.49164063 12.4034375 4.51953125 11.484375 C4.55433594 10.80890625 4.58914062 10.1334375 4.625 9.4375 C3.635 10.0975 2.645 10.7575 1.625 11.4375 C-1.4375 11.25 -1.4375 11.25 -4.375 10.4375 C-6.375 7.4375 -6.375 7.4375 -6.125 4.875 C-4.94352562 1.03520827 -3.99017584 0.51724502 0 0 Z " fill="#1C6491" transform="translate(159.375,0.5625)"/>
<path d="M0 0 C5.41629469 -0.83327611 8.6824611 1.03218939 12.94140625 4.11328125 C17.30027208 8.108219 18.81659674 12.41681172 19.23046875 18.24609375 C19.24773294 21.17755241 19.17820259 24.07450748 19 27 C20.03125 27.185625 21.0625 27.37125 22.125 27.5625 C38.1981371 31.70126193 51.47175204 42.21639601 60.51171875 55.8828125 C61.82853223 58.11199218 61.82853223 58.11199218 64 59 C65.23648282 61.25546385 66.36043271 63.48198355 67.4375 65.8125 C67.90663818 66.82376953 67.90663818 66.82376953 68.38525391 67.85546875 C73.31005562 78.80521142 75.24403074 90.04249388 75 102 C76.258125 102.04125 77.51625 102.0825 78.8125 102.125 C86.01689315 102.97591258 92.32808958 106.00784272 97.18359375 111.4453125 C104.41844561 121.52296477 105.34674696 130.83669243 104 143 C102.88330331 146.84845058 101.33318336 149.76491383 99 153 C98.34 154.0725 97.68 155.145 97 156.25 C91.87069275 161.80807287 84.04353643 164.98563834 76.59375 165.375 C72.71484246 165.43388123 68.86911391 165.26820559 65 165 C65 167.97 65 170.94 65 174 C65.680625 173.236875 66.36125 172.47375 67.0625 171.6875 C70.77470651 168.29122596 74.04694018 166.22879563 79.16796875 165.83203125 C84.43554476 166.07682394 88.33466151 167.70328658 92.3984375 171.0546875 C95.28353636 174.55902709 95.89411198 178.54564413 96 183 C95.33920617 188.02051406 93.47652192 191.36177939 90 195 C85.12296781 197.85260373 80.55396273 198.96590656 75 198 C69.49926161 195.62899207 65.04632661 192.26282949 62 187 C61.625 183.0625 61.625 183.0625 62 180 C61.443125 180.598125 60.88625 181.19625 60.3125 181.8125 C57.95190219 184.04549793 55.96649476 185.66507736 53 187 C51 186.4375 51 186.4375 49 185 C48.13375 184.401875 47.2675 183.80375 46.375 183.1875 C43.77199821 180.78999835 42.81533713 179.42441596 42 176 C42.14687493 172.47500165 42.8399519 170.30009019 44.5 167.1875 C47.61221115 164.46431525 49.75510302 164.10532304 53.80859375 163.8515625 C57.30277349 164.08824491 59.57026001 165.57026001 62 168 C61.79905284 166.05610287 61.79905284 166.05610287 61 164 C59.22531753 162.7270761 59.22531753 162.7270761 57.0625 161.875 C54.46790013 160.73544797 53.03450153 160.03450153 51 158 C47.27858908 158.31414508 44.80819856 160.39543539 41.875 162.5625 C37.21327968 166 37.21327968 166 35 166 C35 166.66 35 167.32 35 168 C31.96296132 169.01444466 28.91972923 170.00890046 25.875 171 C25.0190625 171.28617188 24.163125 171.57234375 23.28125 171.8671875 C18.71721091 173.3417232 14.86207544 174.38258954 10 174 C10 173.67 10 173.34 10 173 C10.92039062 172.79246094 11.84078125 172.58492187 12.7890625 172.37109375 C25.26678734 169.33425441 36.43325704 164.94351894 46.1328125 156.1875 C48 155 48 155 50.02734375 155.16015625 C52.10085444 156.04293803 53.66119949 157.05502131 55.4375 158.4375 C62.28016777 163.75604687 69.73502738 163.79016295 78.05859375 163.25146484 C82.62904477 162.65946729 86.24702572 160.54161823 90 158 C91.36125 157.195625 91.36125 157.195625 92.75 156.375 C99.60870553 149.13525528 101.82701639 141.96652711 101.56518555 132.20825195 C101.04167247 123.26648848 98.85289356 117.42835452 92.375 111.0625 C87.56265722 107.0261119 83.10345148 105.19927468 77 104 C75.66533768 103.67202837 74.3315259 103.34048151 73 103 C72.83564453 101.36804688 72.83564453 101.36804688 72.66796875 99.703125 C70.26644164 76.90164095 63.57593923 58.72138256 45.8125 43.25 C37.23919775 36.54045911 27.42383733 32.05526267 17 29 C16.98582031 28.0821875 16.97164062 27.164375 16.95703125 26.21875 C16.66343373 18.66456519 16.35434453 12.65561199 11 7 C7.66741331 4.09982948 4.05003209 1.78201412 0 0 Z " fill="#EFF3F6" transform="translate(112,0)"/>
<path d="M0 0 C5.61 0 11.22 0 17 0 C17 14.19 17 28.38 17 43 C21.455 42.505 21.455 42.505 26 42 C30.36681877 42.14204762 34.64574668 42.58749179 39 43 C39.495 50.425 39.495 50.425 40 58 C30.64239325 62.67880338 5.17349138 58.24693966 -1 58 C-0.67 38.86 -0.34 19.72 0 0 Z " fill="#216693" transform="translate(91,69)"/>
<path d="M0 0 C-1.702698 1.135132 -3.41526987 2.25653447 -5.15625 3.33203125 C-10.19052045 6.51201208 -13.60092034 8.92241914 -15.59375 14.73046875 C-16.12680228 17.13393956 -16.12680228 17.13393956 -15.71875 20.13671875 C-15.46483127 24.25836385 -15.5961995 27.09527492 -17 31 C-20.58013775 34.18746262 -25.15603712 35.84350379 -29.48046875 37.79296875 C-44.89020142 44.85670494 -54.73638487 60.88120396 -61 76 C-61.95819711 79.05992165 -62.54580476 81.82063332 -63 85 C-66.01104226 84.38218355 -67.40010528 83.73054134 -70.0625 81.9375 C-74.80009254 79.15008025 -79.66245895 79.20178767 -85 80 C-90.00230198 82.45567552 -93.49851535 85.9970307 -96 91 C-96.98366481 98.4336955 -95.57025772 104.02648006 -91 110 C-85.84259616 113.43826922 -79.09860434 113.84156368 -73 113 C-69.67191761 111.11586085 -69.67191761 111.11586085 -67 109 C-66.01 109 -65.02 109 -64 109 C-63.79246094 110.06476563 -63.58492187 111.12953125 -63.37109375 112.2265625 C-59.46480191 131.08294105 -50.94941595 144.71837524 -37 158 C-40.79844792 158 -42.22696593 156.5589885 -44.9765625 154.08203125 C-55.93578353 142.80545826 -63.34045921 129.47599451 -66 114 C-69.26390683 114 -71.26565689 115.29103556 -74 117 C-75.23757877 119.96260526 -75.23757877 119.96260526 -76 123 C-78.45409213 126.34950413 -81.37485546 126.85982891 -85.3125 127.75 C-86.97732422 128.14445312 -86.97732422 128.14445312 -88.67578125 128.546875 C-93.64447757 129.2241591 -96.81838217 128.78774522 -101 126 C-101.78661958 122.24842972 -102.34147254 119.40383153 -101.4375 115.6875 C-99.36246543 113.25158985 -96.8991144 112.26048452 -94 111 C-94.61875 110.01 -95.2375 109.02 -95.875 108 C-98.62532594 103.0533706 -100.57556133 98.99291889 -99.47265625 93.2578125 C-97.04668821 85.57384507 -93.48362091 81.66593676 -86.6875 77.625 C-78.55749507 75.73430118 -72.25996716 77.07190183 -65 81 C-64.72027344 80.04480469 -64.44054687 79.08960937 -64.15234375 78.10546875 C-58.6388244 60.01144253 -47.42484624 44.77401931 -31 35 C-28.79327557 34.14168533 -26.58494813 33.28748005 -24.375 32.4375 C-21.29570322 31.17846257 -21.29570322 31.17846257 -19 29 C-17.95346356 24.92211662 -17.8650828 21.76575916 -17.9921875 17.55859375 C-17.99981457 14.0844633 -17.52337502 12.07627282 -16 9 C-15.34 9 -14.68 9 -14 9 C-14 8.01 -14 7.02 -14 6 C-9.95982392 1.7855016 -5.99202257 -0.89880339 0 0 Z M-87 115 C-86.01 116.485 -86.01 116.485 -85 118 C-85 117.01 -85 116.02 -85 115 C-85.66 115 -86.32 115 -87 115 Z M-86 122 C-86 122.99 -86 123.98 -86 125 C-84.68 124.67 -83.36 124.34 -82 124 C-83.32 123.34 -84.64 122.68 -86 122 Z " fill="#F3F7F9" transform="translate(102,0)"/>
<path d="M0 0 C12.38306422 1.10590888 23.0378169 6.63940922 32 15 C32.77988281 15.67804687 33.55976563 16.35609375 34.36328125 17.0546875 C46.55809863 28.2452258 51.76403667 43.84308999 52.8125 60.0625 C52.651008 66.27025237 52.651008 66.27025237 50.19140625 69.02734375 C47.875 70.5 47.875 70.5 45.390625 71.76171875 C40.40738825 74.3429051 37.25454291 78.75818162 35.125 83.875 C34.12164097 87.06601069 33.98428357 89.74404862 34.24609375 93.0390625 C35.12473312 104.55446671 35.12473312 104.55446671 31.7265625 108.921875 C28.59652364 111.31969397 25.50520901 113.1984856 22 115 C21.05640625 115.50789063 20.1128125 116.01578125 19.140625 116.5390625 C16.46757787 117.86013493 13.7927955 118.95882624 11 120 C10.22140625 120.31839844 9.4428125 120.63679688 8.640625 120.96484375 C-5.65256291 125.90373193 -23.53071437 124.53745733 -37 118 C-53.08248066 109.35985479 -64.66434521 97.03694916 -70 79.375 C-70.70986017 76.92443161 -71.36362122 74.47164971 -72 72 C-72.20109375 71.3090625 -72.4021875 70.618125 -72.609375 69.90625 C-75.8061988 54.30574985 -70.26349549 38.08445094 -62 25 C-54.38875963 14.5572743 -41.9660279 3.81766352 -29 1 C-26.20833738 1.42620803 -23.87484798 2.47543508 -21.3125 3.625 C-15.32192314 5.89651985 -9.81540738 4.90227462 -4 2.5 C-1.1844662 1.28987545 -1.1844662 1.28987545 0 0 Z M-4 5 C-4 5.66 -4 6.32 -4 7 C-4.55042969 6.83242188 -5.10085937 6.66484375 -5.66796875 6.4921875 C-8.31335408 5.93386497 -10.61383081 6.01048787 -13.3125 6.125 C-16.93369644 6.17796963 -19.55494256 6.04446472 -22.8125 4.4375 C-26.48645205 2.78061966 -28.1770311 2.93312496 -32 4 C-32.66 4.33 -33.32 4.66 -34 5 C-34 5.66 -34 6.32 -34 7 C-34.99 6.67 -35.98 6.34 -37 6 C-39.84472315 7.71608441 -39.84472315 7.71608441 -42.8125 10.125 C-43.35293945 10.5473291 -43.89337891 10.9696582 -44.45019531 11.40478516 C-45.97137592 12.59737237 -47.48591885 13.7984123 -49 15 C-49.60714844 15.43828125 -50.21429688 15.8765625 -50.83984375 16.328125 C-61.52632594 24.26157992 -68.03750419 38.14423038 -70 51 C-71.54012667 69.48152006 -67.99071483 85.22896327 -56.67578125 100.04296875 C-43.79336609 115.08282541 -28.78472733 120.46431869 -9.56640625 122.22265625 C1.85370143 122.70460575 12.23174462 118.51619128 22 113 C22.9384375 112.484375 23.876875 111.96875 24.84375 111.4375 C25.5553125 110.963125 26.266875 110.48875 27 110 C27 109.34 27 108.68 27 108 C27.639375 107.690625 28.27875 107.38125 28.9375 107.0625 C30.93610821 106.1654837 30.93610821 106.1654837 32 105 C31.99403131 102.68713236 31.94428583 100.37433733 31.875 98.0625 C31.76541523 88.62367268 33.28842167 81.29118342 39.171875 73.7734375 C41.2419707 71.76526774 43.32225654 70.6995367 45.875 69.375 C48.98151649 67.43670135 49.8519397 66.61974967 50.71484375 63.0078125 C51.0533644 50.84815063 47.57405647 39.17714511 41 29 C40.01 27.4221875 40.01 27.4221875 39 25.8125 C35.02048391 20.2163055 31.0868367 15.88916498 25.5 11.9375 C24.89559082 11.50775879 24.29118164 11.07801758 23.66845703 10.63525391 C15.6587178 5.1476773 4.90968119 -1.43476975 -4 5 Z " fill="#EEF3F6" transform="translate(121,39)"/>
<path d="M0 0 C3.625 0.4375 3.625 0.4375 6.0625 2.9375 C6.578125 3.7625 7.09375 4.5875 7.625 5.4375 C8.19347656 5.18613281 8.76195312 4.93476562 9.34765625 4.67578125 C13.61421236 2.98767808 15.8722113 2.25238802 20.4375 3.375 C24.17322909 5.79223647 25.81267644 7.359772 27.625 11.4375 C28.03113 15.40777089 27.82054419 18.90037175 25.3125 22.125 C22.69771208 24.42601337 21.14660273 25.4375 17.625 25.4375 C17.955 26.4275 18.285 27.4175 18.625 28.4375 C19.553125 27.798125 20.48125 27.15875 21.4375 26.5 C26.13318514 23.4616155 30.12366013 22.87014267 35.625 23.4375 C42.2726501 25.69094071 47.53790888 28.883174 50.89453125 35.25390625 C52.91461296 41.29254622 52.58266966 48.13191905 50 53.9375 C47.27552039 58.56144075 43.54612399 60.62000043 38.6875 62.6875 C30.72786863 64.63679748 24.77053701 62.79291875 17.875 58.875 C13.81213489 54.4735628 11.71952821 49.45452545 11.53125 43.4453125 C11.86143994 38.99954075 12.11797191 36.19804214 14.625 32.4375 C14.79199232 29.31228167 14.79199232 29.31228167 14.625 26.4375 C13.531875 26.025 12.43875 25.6125 11.3125 25.1875 C8.01698218 23.94390837 6.39733414 22.506664 4.625 19.4375 C4.33203125 16.859375 4.33203125 16.859375 4.4375 14.1875 C4.46457031 13.29546875 4.49164063 12.4034375 4.51953125 11.484375 C4.55433594 10.80890625 4.58914062 10.1334375 4.625 9.4375 C3.635 10.0975 2.645 10.7575 1.625 11.4375 C-1.4375 11.25 -1.4375 11.25 -4.375 10.4375 C-6.375 7.4375 -6.375 7.4375 -6.125 4.875 C-4.94352562 1.03520827 -3.99017584 0.51724502 0 0 Z M16.0078125 34.5 C12.99941678 38.71515333 12.8103667 43.46353704 13.625 48.4375 C15.9714812 53.69194184 19.3634632 58.32562484 24.64453125 60.84375 C29.48048394 62.29358197 34.11992385 62.38454098 38.8671875 60.58984375 C43.9789125 57.74463833 47.57855962 53.9507412 49.625 48.4375 C50.53032093 43.6966591 50.58940023 39.53813904 48.55078125 35.09765625 C45.24764838 30.23797857 41.24392562 27.17565014 35.625 25.4375 C26.51167016 24.31831914 21.59401149 27.886742 16.0078125 34.5 Z " fill="#F4F7F9" transform="translate(159.375,0.5625)"/>
<path d="M0 0 C4.42977671 2.1357852 7.19613671 4.39012714 9 9 C9.68829606 14.0729969 9.59408188 17.83305346 7.25 22.4375 C4.30122715 25.79582463 2.48068724 27.75321879 -2.0234375 28.50390625 C-10.84765972 28.65817587 -10.84765972 28.65817587 -14.11328125 26.79296875 C-17.8712415 23.1096082 -20.26956224 19.00398052 -20.5625 13.75 C-20.48637169 8.64094446 -18.16704151 6.09915416 -14.7265625 2.53125 C-10.53788903 -1.18359163 -5.31391357 -0.54039799 0 0 Z " fill="#1D6592" transform="translate(88,177)"/>
<path d="M0 0 C4.23554524 1.45194147 7.04298165 3.58577974 9.4375 7.375 C11.07808082 11.18114749 11.74419862 12.94825195 11 17 C9.188868 20.8894802 6.99967029 24.05913385 3.875 27 C-0.73695716 28.60415901 -5.18528468 28.78311635 -10 28 C-13 25.75 -13 25.75 -15 23 C-15.598125 22.4225 -16.19625 21.845 -16.8125 21.25 C-18.74373477 17.59081833 -18.62495458 14.03762788 -18 10 C-14.33876652 2.53671637 -8.4310001 -1.58183174 0 0 Z " fill="#1F6592" transform="translate(195,168)"/>
<path d="M0 0 C1.9375 1.125 1.9375 1.125 3 3 C3.6875 6.6875 3.6875 6.6875 4 10 C4.515625 9.67 5.03125 9.34 5.5625 9 C8.78026512 7.67989123 11.5570528 7.86757895 15 8 C15 6.35 15 4.7 15 3 C13.824375 2.814375 13.824375 2.814375 12.625 2.625 C10 2 10 2 8 0 C11.651429 0.48045118 15.01194588 1.29783875 18.5 2.4375 C29.32272259 5.75884451 40.75760466 6.35074313 52 7 C52 7.33 52 7.66 52 8 C46.1632921 9.11665646 40.94945797 8.83669942 35.0625 8.1875 C34.20720703 8.10435547 33.35191406 8.02121094 32.47070312 7.93554688 C27.1529154 7.37983603 22.15591058 6.41593373 17 5 C18.17938001 8.53814003 18.79172537 8.67980861 21.9375 10.375 C24.86538833 12.09821156 25.85805207 12.73384763 27.5 15.8125 C27.7475 16.8953125 27.7475 16.8953125 28 18 C28.66 18 29.32 18 30 18 C30.37940836 25.20875879 29.46942804 30.15065996 24.5625 35.8125 C19.94503133 39.75424155 16.51976321 40.45842927 10.53515625 40.30859375 C6.37002877 39.80159056 4.33661171 38.60255713 1 36 C-3.37509996 30.35842374 -3.74638098 25.01256579 -4 18 C-3.34 18 -2.68 18 -2 18 C-2 17.34 -2 16.68 -2 16 C-3.5778125 15.938125 -3.5778125 15.938125 -5.1875 15.875 C-10.25168537 14.71272795 -11.27763966 13.33876179 -14 9 C-14 5.55409579 -11.89805014 2.8091142 -10 0 C-6.74427509 -1.62786245 -3.42908453 -0.77294938 0 0 Z M0 16 C-2.69453803 20.04180705 -2.66668254 23.25191944 -2 28 C-0.37794216 31.35026165 -0.37794216 31.35026165 2 34 C2.57492188 34.70382813 3.14984375 35.40765625 3.7421875 36.1328125 C7.48581752 39.22875566 11.18096979 38.59868273 15.85546875 38.45703125 C20.46124763 37.78761991 22.02877785 36.53334526 25 33 C27.69791869 28.50660232 27.65350926 24.10705385 27 19 C24.83605984 14.59197375 22.61803133 11.76860774 18 10 C10.13269224 8.79245974 5.16835529 9.8070145 0 16 Z " fill="#E6EDF1" transform="translate(70,167)"/>
<path d="M0 0 C5.41629469 -0.83327611 8.6824611 1.03218939 12.94140625 4.11328125 C17.30027208 8.108219 18.81659674 12.41681172 19.23046875 18.24609375 C19.24773294 21.17755241 19.17820259 24.07450748 19 27 C20.03125 27.185625 21.0625 27.37125 22.125 27.5625 C38.1981371 31.70126193 51.47175204 42.21639601 60.51171875 55.8828125 C61.82853223 58.11199218 61.82853223 58.11199218 64 59 C65.23648282 61.25546385 66.36043271 63.48198355 67.4375 65.8125 C67.90663818 66.82376953 67.90663818 66.82376953 68.38525391 67.85546875 C73.31005562 78.80521142 75.24403074 90.04249388 75 102 C76.258125 102.04125 77.51625 102.0825 78.8125 102.125 C86.01689315 102.97591258 92.32808958 106.00784272 97.18359375 111.4453125 C104.41844561 121.52296477 105.34674696 130.83669243 104 143 C102.88330331 146.84845058 101.33318336 149.76491383 99 153 C98.34 154.0725 97.68 155.145 97 156.25 C92.08343853 161.62748911 84.35900427 164.66304659 77.26171875 165.375 C74.14968713 165.375 71.09902733 165.27389112 68 165 C68 164.67 68 164.34 68 164 C68.75023437 163.98582031 69.50046875 163.97164062 70.2734375 163.95703125 C77.96132097 163.59877975 83.45537392 162.02839277 90 158 C91.36125 157.195625 91.36125 157.195625 92.75 156.375 C99.60870553 149.13525528 101.82701639 141.96652711 101.56518555 132.20825195 C101.04167247 123.26648848 98.85289356 117.42835452 92.375 111.0625 C87.56265722 107.0261119 83.10345148 105.19927468 77 104 C75.66533768 103.67202837 74.3315259 103.34048151 73 103 C72.83564453 101.36804688 72.83564453 101.36804688 72.66796875 99.703125 C70.26644164 76.90164095 63.57593923 58.72138256 45.8125 43.25 C37.23919775 36.54045911 27.42383733 32.05526267 17 29 C16.98582031 28.0821875 16.97164062 27.164375 16.95703125 26.21875 C16.66343373 18.66456519 16.35434453 12.65561199 11 7 C7.66741331 4.09982948 4.05003209 1.78201412 0 0 Z " fill="#F3F6F9" transform="translate(112,0)"/>
<path d="M0 0 C1.7484578 2.26529752 3.37012709 4.56187968 4.9453125 6.953125 C9.62268226 14.02785633 14.27713707 19.70753344 21 25 C22.010625 25.825 23.02125 26.65 24.0625 27.5 C25.0215625 28.2425 25.0215625 28.2425 26 29 C25.34 29.33 24.68 29.66 24 30 C23.01 29.67 22.02 29.34 21 29 C21.33 29.99 21.66 30.98 22 32 C20.68 32.99 19.36 33.98 18 35 C19.485 37.475 19.485 37.475 21 40 C16.49142846 38.58302037 14.25431415 36.36358309 11 33 C10.07960938 32.09121094 9.15921875 31.18242187 8.2109375 30.24609375 C7.27507813 29.31925781 6.33921875 28.39242187 5.375 27.4375 C4.65957031 26.73463867 4.65957031 26.73463867 3.9296875 26.01757812 C1.38606686 23.49162151 -1.03750036 21.00960515 -3 18 C-3 17.34 -3 16.68 -3 16 C-2.01 15.34 -1.02 14.68 0 14 C-0.165 13.319375 -0.33 12.63875 -0.5 11.9375 C-1.18082756 7.93763809 -1.85791887 3.71583773 0 0 Z " fill="#216592" transform="translate(53,125)"/>
<path d="M0 0 C5.61 0 11.22 0 17 0 C17 14.19 17 28.38 17 43 C21.455 42.505 21.455 42.505 26 42 C30.36681877 42.14204762 34.64574668 42.58749179 39 43 C39.495 50.425 39.495 50.425 40 58 C30.64239325 62.67880338 5.17349138 58.24693966 -1 58 C-0.67 38.86 -0.34 19.72 0 0 Z M2 1 C2 19.48 2 37.96 2 57 C13.55 57 25.1 57 37 57 C37 53.04 37 49.08 37 45 C29.74 45 22.48 45 15 45 C15 30.48 15 15.96 15 1 C10.71 1 6.42 1 2 1 Z " fill="#EDF2F5" transform="translate(91,69)"/>
<path d="M0 0 C3.03978021 0.68164768 4.80055419 2.23591662 6.93359375 4.43359375 C8.38507278 7.3365518 8.305984 9.20621154 7.93359375 12.43359375 C6.12049233 15.36297029 4.06063476 17.87007324 0.93359375 19.43359375 C-2.83801276 19.85266114 -4.57610759 19.74560199 -7.81640625 17.68359375 C-11.23307292 14.26692708 -11.23307292 14.26692708 -12.06640625 11.43359375 C-11.98371571 7.54713843 -11.28051472 5.73204798 -9.00390625 2.55859375 C-5.67558816 0.15087428 -4.00131583 -0.24960949 0 0 Z " fill="#276993" transform="translate(177.06640625,5.56640625)"/>
<path d="M0 0 C1 3 1 3 -0.4375 6.625 C-2.01077658 10.7616324 -1.95437704 13.9429129 -1.60107422 18.25244141 C-0.91990987 27.61184292 -0.91990987 27.61184292 -4.2734375 31.921875 C-7.40347636 34.31969397 -10.49479099 36.1984856 -14 38 C-14.94359375 38.50789063 -15.8871875 39.01578125 -16.859375 39.5390625 C-19.53242213 40.86013493 -22.2072045 41.95882624 -25 43 C-25.77859375 43.31839844 -26.5571875 43.63679688 -27.359375 43.96484375 C-41.65256291 48.90373193 -59.53071437 47.53745733 -73 41 C-86.60006022 33.69350932 -95.55121466 24.44497309 -103 11 C-103 10.01 -103 9.02 -103 8 C-102.34 8 -101.68 8 -101 8 C-99.91306077 9.75235078 -98.90705729 11.5550745 -97.9375 13.375 C-90.37594173 26.59994759 -79.58516508 36.46893453 -64.921875 41.2578125 C-46.68397297 45.89043467 -30.39445001 44.72827695 -14 35 C-13.01 34.01 -13.01 34.01 -12 33 C-11.01 33 -10.02 33 -9 33 C-9 32.34 -9 31.68 -9 31 C-8.34128906 30.60941406 -7.68257813 30.21882813 -7.00390625 29.81640625 C-4.64022137 28.08688701 -4.64022137 28.08688701 -4.71484375 24.77734375 C-4.78832031 23.51019531 -4.86179687 22.24304688 -4.9375 20.9375 C-5.2210378 13.15992663 -4.37319337 6.55979005 0 0 Z " fill="#ECF2F5" transform="translate(157,116)"/>
<path d="M0 0 C3.69824535 2.05458075 4.7810498 3.3431494 6.125 7.375 C6 11 6 11 4.0625 14.4375 C0.70463556 17.24714167 -0.79945652 17.92955099 -5.05859375 17.58203125 C-8.8001617 16.4603137 -10.14799711 14.28581158 -12 11 C-12.14971147 6.65836732 -11.72194213 4.80444981 -8.8125 1.5625 C-5.45611204 -0.30215998 -3.7822566 -0.6303761 0 0 Z " fill="#216692" transform="translate(168,166)"/>
<path d="M0 0 C3.625 0.4375 3.625 0.4375 6.0625 2.9375 C6.578125 3.7625 7.09375 4.5875 7.625 5.4375 C8.19347656 5.18613281 8.76195312 4.93476562 9.34765625 4.67578125 C13.61421236 2.98767808 15.8722113 2.25238802 20.4375 3.375 C24.17322909 5.79223647 25.81267644 7.359772 27.625 11.4375 C28.13946834 16.46687154 27.34526055 19.53255725 24.1875 23.5 C20.65807969 25.95524891 17.17296708 26.08003827 12.96875 25.87109375 C9.66150851 25.25925407 7.86705976 23.89653328 5.625 21.4375 C4.36262269 18.91274538 4.52643596 17.12549534 4.5625 14.3125 C4.57152344 13.40242187 4.58054688 12.49234375 4.58984375 11.5546875 C4.60144531 10.85601562 4.61304688 10.15734375 4.625 9.4375 C3.635 10.0975 2.645 10.7575 1.625 11.4375 C-1.4375 11.25 -1.4375 11.25 -4.375 10.4375 C-6.375 7.4375 -6.375 7.4375 -6.125 4.875 C-4.94352562 1.03520827 -3.99017584 0.51724502 0 0 Z M6.625 10.4375 C5.37822994 13.33456707 5.37822994 13.33456707 5.625 16.4375 C7.61726611 20.13742277 9.12002441 22.10084961 12.625 24.4375 C15.63074088 24.90505969 17.67543034 25.02878296 20.3125 23.38671875 C23.68083849 20.64184676 25.45535527 18.9643026 25.9375 14.625 C25.55335642 10.7067355 24.33243683 9.22456733 21.625 6.4375 C15.45118766 3.35059383 10.44817579 5.10822466 6.625 10.4375 Z " fill="#EEF3F6" transform="translate(159.375,0.5625)"/>
<path d="M0 0 C-1.702698 1.135132 -3.41526987 2.25653447 -5.15625 3.33203125 C-10.19052045 6.51201208 -13.60092034 8.92241914 -15.59375 14.73046875 C-16.12680228 17.13393956 -16.12680228 17.13393956 -15.71875 20.13671875 C-15.46483127 24.25836385 -15.5961995 27.09527492 -17 31 C-20.58013775 34.18746262 -25.15603712 35.84350379 -29.48046875 37.79296875 C-44.89020142 44.85670494 -54.73638487 60.88120396 -61 76 C-61.95819711 79.05992165 -62.54580476 81.82063332 -63 85 C-65.98686117 84.37665506 -67.54352515 83.66552298 -70.25 82 C-74.13820759 79.67213602 -77.51236789 79.31492155 -82 79 C-82 78.67 -82 78.34 -82 78 C-80.29249317 77.91796675 -78.58380652 77.86034658 -76.875 77.8125 C-75.92367187 77.77769531 -74.97234375 77.74289063 -73.9921875 77.70703125 C-70.45256747 78.05359979 -68.07451087 79.26203465 -65 81 C-64.58041016 79.56720703 -64.58041016 79.56720703 -64.15234375 78.10546875 C-58.6388244 60.01144253 -47.42484624 44.77401931 -31 35 C-28.79327557 34.14168533 -26.58494813 33.28748005 -24.375 32.4375 C-21.29570322 31.17846257 -21.29570322 31.17846257 -19 29 C-17.95346356 24.92211662 -17.8650828 21.76575916 -17.9921875 17.55859375 C-17.99981457 14.0844633 -17.52337502 12.07627282 -16 9 C-15.34 9 -14.68 9 -14 9 C-14 8.01 -14 7.02 -14 6 C-9.95982392 1.7855016 -5.99202257 -0.89880339 0 0 Z " fill="#ECF2F5" transform="translate(102,0)"/>
<path d="M0 0 C3.651429 0.48045118 7.01194588 1.29783875 10.5 2.4375 C21.32272259 5.75884451 32.75760466 6.35074313 44 7 C44 7.33 44 7.66 44 8 C38.1632921 9.11665646 32.94945797 8.83669942 27.0625 8.1875 C26.20720703 8.10435547 25.35191406 8.02121094 24.47070312 7.93554688 C19.1529154 7.37983603 14.15591058 6.41593373 9 5 C10.17938001 8.53814003 10.79172537 8.67980861 13.9375 10.375 C16.86538833 12.09821156 17.85805207 12.73384763 19.5 15.8125 C19.7475 16.8953125 19.7475 16.8953125 20 18 C20.66 18 21.32 18 22 18 C22.37940836 25.20875879 21.46942804 30.15065996 16.5625 35.8125 C12.5823462 39.21019227 9.99927 40.26313868 4.75 40.125 C3.41195312 40.09792969 3.41195312 40.09792969 2.046875 40.0703125 C1.37140625 40.04710937 0.6959375 40.02390625 0 40 C0 39.67 0 39.34 0 39 C0.56847656 38.98582031 1.13695313 38.97164062 1.72265625 38.95703125 C7.60972342 38.59338937 11.81378396 37.30217771 16 33 C18.76889218 28.58273723 18.63878055 24.05435111 18 19 C15.64981442 14.02845359 13.13860719 11.87756801 8 10 C5.32141673 9.50683124 2.7203059 9.23450913 0 9 C0 8.67 0 8.34 0 8 C2.31 8 4.62 8 7 8 C7 6.35 7 4.7 7 3 C5.824375 2.814375 5.824375 2.814375 4.625 2.625 C2 2 2 2 0 0 Z " fill="#DFE8EE" transform="translate(78,167)"/>
<path d="M0 0 C2.3046875 0.57421875 2.3046875 0.57421875 4.875 1.6875 C5.71804687 2.04199219 6.56109375 2.39648438 7.4296875 2.76171875 C12.42541665 5.1684758 15.54489538 7.22818238 18.6875 11.875 C19.26886719 12.71804687 19.85023438 13.56109375 20.44921875 14.4296875 C25.34358438 22.5417595 25.02266186 31.76370615 24 41 C22.88330331 44.84845058 21.33318336 47.76491383 19 51 C18.34 52.0725 17.68 53.145 17 54.25 C12.08343853 59.62748911 4.35900427 62.66304659 -2.73828125 63.375 C-5.85031287 63.375 -8.90097267 63.27389112 -12 63 C-12 62.67 -12 62.34 -12 62 C-11.24976563 61.98582031 -10.49953125 61.97164062 -9.7265625 61.95703125 C-2.03867903 61.59877975 3.45537392 60.02839277 10 56 C10.9075 55.46375 11.815 54.9275 12.75 54.375 C19.60870553 47.13525528 21.82701639 39.96652711 21.56518555 30.20825195 C21.04167247 21.26648848 18.85289356 15.42835452 12.375 9.0625 C7.61755786 5.05548772 3.08194388 3.12580663 -3 2 C-2.01 1.34 -1.02 0.68 0 0 Z " fill="#E9EFF3" transform="translate(192,102)"/>
<path d="M0 0 C4.95 0 9.9 0 15 0 C15 0.33 15 0.66 15 1 C10.71 1 6.42 1 2 1 C2 19.81 2 38.62 2 58 C1.01 58 0.02 58 -1 58 C-0.67 38.86 -0.34 19.72 0 0 Z " fill="#F4F7FA" transform="translate(91,69)"/>
<path d="M0 0 C2 2 2 2 2.3125 5.4375 C2 9 2 9 0.875 10.9375 C-1.88980433 12.50422245 -3.88188517 12.38976435 -7 12 C-8.875 10.9375 -8.875 10.9375 -10 9 C-10.4375 5.5 -10.4375 5.5 -10 2 C-7.00303875 -1.6885677 -4.34072074 -1.22672543 0 0 Z " fill="#286992" transform="translate(69,169)"/>
<path d="M0 0 C1 3 1 3 -0.4375 6.625 C-2.01077658 10.7616324 -1.95437704 13.9429129 -1.60107422 18.25244141 C-0.91990987 27.61184292 -0.91990987 27.61184292 -4.2734375 31.921875 C-7.40347636 34.31969397 -10.49479099 36.1984856 -14 38 C-14.94359375 38.50789063 -15.8871875 39.01578125 -16.859375 39.5390625 C-26.672005 44.3886571 -36.07449526 46.57057762 -47 46 C-47 45.67 -47 45.34 -47 45 C-45.38544922 44.76216797 -45.38544922 44.76216797 -43.73828125 44.51953125 C-28.07101037 42.19410425 -28.07101037 42.19410425 -14.328125 34.83984375 C-12 33 -12 33 -9 33 C-9 32.34 -9 31.68 -9 31 C-8.34128906 30.60941406 -7.68257812 30.21882813 -7.00390625 29.81640625 C-4.64022137 28.08688701 -4.64022137 28.08688701 -4.71484375 24.77734375 C-4.78832031 23.51019531 -4.86179688 22.24304688 -4.9375 20.9375 C-5.2210378 13.15992663 -4.37319337 6.55979005 0 0 Z " fill="#F6F9FB" transform="translate(157,116)"/>
<path d="M0 0 C1.8125 1.0625 1.8125 1.0625 3 3 C3.63316583 8.90954774 3.63316583 8.90954774 1.875 11.9375 C-0.92162472 13.52225401 -2.8493196 13.45947423 -6 13 C-8.58525068 10.75944941 -8.95386189 9.3229668 -9.4375 5.9375 C-9 3 -9 3 -7.3125 1.125 C-4.57639764 -0.20607683 -3.00519158 -0.46233717 0 0 Z " fill="#166293" transform="translate(11,114)"/>
<path d="M0 0 C2.31 0 4.62 0 7 0 C7 3.63 7 7.26 7 11 C-3.89 11 -14.78 11 -26 11 C-25.67 9.68 -25.34 8.36 -25 7 C-24.67 7.66 -24.34 8.32 -24 9 C-15.75 9 -7.5 9 1 9 C0.67 8.34 0.34 7.68 0 7 C-0.04022391 4.6670134 -0.04320247 2.33293334 0 0 Z " fill="#1F6089" transform="translate(120,115)"/>
<path d="M0 0 C2.61688414 0.34695767 5.06226893 0.78869252 7.625 1.375 C8.68460938 1.60316406 8.68460938 1.60316406 9.765625 1.8359375 C11.51267131 2.21367724 13.25665712 2.60552095 15 3 C13.02 3.99 13.02 3.99 11 5 C11.66 5.66 12.32 6.32 13 7 C12.625 9.625 12.625 9.625 12 12 C11.071875 11.938125 10.14375 11.87625 9.1875 11.8125 C6.01604897 11.69105736 6.01604897 11.69105736 4.125 13.5 C3.75375 13.995 3.3825 14.49 3 15 C2.34 14.67 1.68 14.34 1 14 C1.33 13.67 1.66 13.34 2 13 C2.52813349 7.85868816 2.52813349 7.85868816 0 3.5625 C-0.66 3.046875 -1.32 2.53125 -2 2 C-1.34 1.34 -0.68 0.68 0 0 Z M4 4 C4.99 5.485 4.99 5.485 6 7 C6 6.01 6 5.02 6 4 C5.34 4 4.68 4 4 4 Z " fill="#E6EDF2" transform="translate(11,111)"/>
<path d="M0 0 C0.99 0 1.98 0 3 0 C3.20753906 1.06476563 3.41507813 2.12953125 3.62890625 3.2265625 C7.53519809 22.08294105 16.05058405 35.71837524 30 49 C26.20155208 49 24.77303407 47.5589885 22.0234375 45.08203125 C11.67353973 34.43242602 1.99342087 20.25260865 1.875 5 C1.90653811 3.66638865 1.94446551 2.33282775 2 1 C1.34 0.67 0.68 0.34 0 0 Z " fill="#E0E9EF" transform="translate(35,109)"/>
<path d="M0 0 C5.41629469 -0.83327611 8.6824611 1.03218939 12.94140625 4.11328125 C17.30027208 8.108219 18.81659674 12.41681172 19.23046875 18.24609375 C19.24773294 21.17755241 19.17820259 24.07450748 19 27 C20.85625 27.433125 20.85625 27.433125 22.75 27.875 C25.72448742 28.61334794 28.333856 29.44474933 31 31 C31 31.66 31 32.32 31 33 C29.22888156 32.52188823 27.45811517 32.0424722 25.6875 31.5625 C24.70136719 31.29566406 23.71523437 31.02882813 22.69921875 30.75390625 C20.78482474 30.21920575 18.88566385 29.62855462 17 29 C16.98582031 28.0821875 16.97164062 27.164375 16.95703125 26.21875 C16.66343373 18.66456519 16.35434453 12.65561199 11 7 C7.66741331 4.09982948 4.05003209 1.78201412 0 0 Z " fill="#DCE6EC" transform="translate(112,0)"/>
<path d="M0 0 C2.30019361 3.45029042 2.43132515 4.94554358 2 9 C-1 11 -1 11 -4.1875 10.625 C-5.5796875 10.315625 -5.5796875 10.315625 -7 10 C-9.125 4.375 -9.125 4.375 -8 1 C-5.21136993 -0.39431504 -3.07921132 -0.25660094 0 0 Z " fill="#E4EBF0" transform="translate(78,16)"/>
<path d="M0 0 C-0.33 1.32 -0.66 2.64 -1 4 C-1.66 4 -2.32 4 -3 4 C-6.09925069 5.04901119 -6.09925069 5.04901119 -9 7 C-10.23757877 9.96260526 -10.23757877 9.96260526 -11 13 C-13.45409213 16.34950413 -16.37485546 16.85982891 -20.3125 17.75 C-21.42238281 18.01296875 -22.53226563 18.2759375 -23.67578125 18.546875 C-27.08333735 19.01135973 -29.66187846 18.74741602 -33 18 C-33 17.67 -33 17.34 -33 17 C-32.38253906 16.89042969 -31.76507812 16.78085938 -31.12890625 16.66796875 C-25.22287499 15.5622734 -19.64802441 14.04638565 -14 12 C-14.57452746 8.06924356 -14.57452746 8.06924356 -17 5 C-16.40832031 4.89042969 -15.81664063 4.78085938 -15.20703125 4.66796875 C-9.99086302 3.62133141 -4.98737724 0 0 0 Z " fill="#F8FAFB" transform="translate(37,110)"/>
<path d="M0 0 C0 0.66 0 1.32 0 2 C1.32 2.66 2.64 3.32 4 4 C4.1875 6.375 4.1875 6.375 4 9 C0.54754176 11.30163882 -0.94738713 11.34490322 -5 11 C-7 9 -7 9 -7.375 6.0625 C-7 3 -7 3 -5.1875 1.125 C-3 0 -3 0 0 0 Z " fill="#F9FBFC" transform="translate(172,186)"/>
<path d="M0 0 C2.3046875 0.57421875 2.3046875 0.57421875 4.875 1.6875 C5.71804687 2.04199219 6.56109375 2.39648438 7.4296875 2.76171875 C15.54034369 6.66913214 19.73748668 12.0978878 23.5 20.25 C24.29389143 26.20418574 23.61119574 32.04497121 23 38 C22.67 38 22.34 38 22 38 C21.97421875 37.10539062 21.9484375 36.21078125 21.921875 35.2890625 C21.41641877 24.51365471 20.28569766 16.78691749 12.375 9.0625 C7.61755786 5.05548772 3.08194388 3.12580663 -3 2 C-2.01 1.34 -1.02 0.68 0 0 Z " fill="#EDF2F5" transform="translate(192,102)"/>
<path d="M0 0 C2.09442183 0.88816705 3.72774142 1.90881665 5.54296875 3.27734375 C7.66525906 4.86078975 9.77334459 6.36842764 11.98046875 7.83984375 C8.23593499 7.49151503 6.32271716 7.11690199 3.35546875 4.71484375 C1.24280617 2.60630931 1.24280617 2.60630931 -0.84765625 3 C-3.63256539 4.07689832 -5.74515592 5.62967093 -8.14453125 7.40234375 C-12.80625157 10.83984375 -12.80625157 10.83984375 -15.01953125 10.83984375 C-15.01953125 11.49984375 -15.01953125 12.15984375 -15.01953125 12.83984375 C-18.05656993 13.85428841 -21.09980202 14.84874421 -24.14453125 15.83984375 C-25.00046875 16.12601563 -25.85640625 16.4121875 -26.73828125 16.70703125 C-31.30232034 18.18156695 -35.15745581 19.22243329 -40.01953125 18.83984375 C-40.01953125 18.50984375 -40.01953125 18.17984375 -40.01953125 17.83984375 C-39.09914063 17.63230469 -38.17875 17.42476562 -37.23046875 17.2109375 C-24.75274391 14.17409816 -13.58627421 9.78336269 -3.88671875 1.02734375 C-2.01953125 -0.16015625 -2.01953125 -0.16015625 0 0 Z " fill="#E8EEF2" transform="translate(162.01953125,155.16015625)"/>
<path d="M0 0 C0.33 0 0.66 0 1 0 C1.0825 1.19625 1.165 2.3925 1.25 3.625 C1.78258474 7.91611134 3.2547084 10.60875744 6 14 C10.47275231 16.98183487 14.75740688 16.47729923 20 16 C25.09873216 14.15577773 26.64078006 10.63106136 29 6 C29.66 6.33 30.32 6.66 31 7 C29.35178761 12.24431216 26.47669873 15.59430613 21.6875 18.3125 C16.26627116 19.69932598 12.47614482 19.61081854 7.375 17.5 C3.32581541 14.85353524 0.01230172 11.42706379 -2 7 C-1.89901794 4.1778171 -1.20164953 2.6217808 0 0 Z " fill="#EEF3F6" transform="translate(176,179)"/>
<path d="M0 0 C2.61937959 1.68992232 2.91130635 2.65328846 3.6875 5.6875 C3.790625 6.450625 3.89375 7.21375 4 8 C3.01 8.495 3.01 8.495 2 9 C1.62875 8.030625 1.2575 7.06125 0.875 6.0625 C-0.7074288 2.73976471 -0.7074288 2.73976471 -4 2 C-7.18490007 1.7226499 -7.18490007 1.7226499 -10 4 C-10.41666667 7.5 -10.41666667 7.5 -10 11 C-7.23776722 13.76223278 -4.79293383 13.57856291 -1 14 C-1 14.33 -1 14.66 -1 15 C-7.99970922 15.71183484 -7.99970922 15.71183484 -10.6796875 13.8046875 C-12.60064378 11.64496829 -14 9.90128001 -14 6.9375 C-10.27769191 -0.27447193 -8.23660462 -1.89036827 0 0 Z " fill="#F1F5F7" transform="translate(70,167)"/>
<path d="M0 0 C5 1 5 1 7 3 C6.01 3.495 6.01 3.495 5 4 C4.01 3.67 3.02 3.34 2 3 C2.33 3.99 2.66 4.98 3 6 C1.68 6.99 0.36 7.98 -1 9 C-0.01 10.65 0.98 12.3 2 14 C-1.93673644 12.68775452 -4.22719294 11.08089673 -7 8 C-4.69 5.36 -2.38 2.72 0 0 Z " fill="#4C82A5" transform="translate(72,151)"/>
<path d="M0 0 C0 0.33 0 0.66 0 1 C-1.08667969 1.14695312 -1.08667969 1.14695312 -2.1953125 1.296875 C-9.36079428 2.40513618 -13.83115045 4.01222757 -19.1875 9.0625 C-21.86375953 13.39988613 -22.85947876 18.06638162 -24 23 C-25.62915111 20.51247895 -26.06629686 19.39539207 -25.56640625 16.4140625 C-22.79109878 8.70367522 -19.66521423 4.77391117 -12.6875 0.625 C-8.48188984 -0.35304887 -4.29687563 -0.15018206 0 0 Z " fill="#F5F8FA" transform="translate(28,77)"/>
<path d="M0 0 C0.33 0 0.66 0 1 0 C1.33 4.62 1.66 9.24 2 14 C2.66 14 3.32 14 4 14 C4.99 19.28 5.98 24.56 7 30 C6.34 30.33 5.68 30.66 5 31 C1.68546246 20.45266803 -0.8868268 11.15431047 0 0 Z " fill="#DAE4EB" transform="translate(48,94)"/>
<path d="M0 0 C0.33 0 0.66 0 1 0 C2.21968724 5.6918738 2.22091273 9.12595288 -0.6953125 14.234375 C-2.74837889 17.01277622 -4.91961103 18.49123805 -8 20 C-10.875 20.25 -10.875 20.25 -13 20 C-12.443125 19.5875 -11.88625 19.175 -11.3125 18.75 C-10.549375 18.1725 -9.78625 17.595 -9 17 C-8.154375 16.401875 -7.30875 15.80375 -6.4375 15.1875 C-1.67137424 10.91020765 -0.62170729 6.2170729 0 0 Z " fill="#E8EFF3" transform="translate(209,42)"/>
<path d="M0 0 C2.31 0.33 4.62 0.66 7 1 C6.01 1.33 5.02 1.66 4 2 C3.9727585 3.41655793 3.95349533 4.83327045 3.9375 6.25 C3.92589844 7.03890625 3.91429687 7.8278125 3.90234375 8.640625 C3.91118107 10.9763019 3.91118107 10.9763019 4.5625 13.0625 C5.28448848 16.25987755 3.99486453 18.95688497 3 22 C2.67 22 2.34 22 2 22 C1.34 17.05 0.68 12.1 0 7 C0.66 7 1.32 7 2 7 C1.34 4.69 0.68 2.38 0 0 Z " fill="#FBFCFD" transform="translate(173,163)"/>
<path d="M0 0 C0.33 0 0.66 0 1 0 C1.52807326 5.12426648 1.79492139 9.89209295 1 15 C-1.04420206 17.37179855 -2.87535923 18.40741429 -5.6640625 19.79296875 C-9.08023204 21.5581801 -10.74231775 23.94120469 -13 27 C-13.33 25.68 -13.66 24.36 -14 23 C-12.61536194 21.67569475 -11.2167677 20.36597197 -9.8125 19.0625 C-9.03519531 18.33160156 -8.25789062 17.60070312 -7.45703125 16.84765625 C-5 15 -5 15 0 14 C0 9.38 0 4.76 0 0 Z " fill="#E2EAF0" transform="translate(172,91)"/>
<path d="M0 0 C1.8125 2 1.8125 2 3 4 C0.69 4.33 -1.62 4.66 -4 5 C-3.67 5.99 -3.34 6.98 -3 8 C-3.66 8 -4.32 8 -5 8 C-5 6.68 -5 5.36 -5 4 C-5.99 4 -6.98 4 -8 4 C-8 5.65 -8 7.3 -8 9 C-8.33 9 -8.66 9 -9 9 C-9.25 6.1875 -9.25 6.1875 -9 3 C-6.32394643 0.02660715 -3.92616393 -0.70469609 0 0 Z " fill="#347096" transform="translate(11,114)"/>
<path d="M0 0 C2.5 0.125 2.5 0.125 3.5 1.125 C3.625 3.625 3.625 3.625 3.5 6.125 C2.5 7.125 2.5 7.125 0 7.25 C-2.5 7.125 -2.5 7.125 -3.5 6.125 C-3.625 3.625 -3.625 3.625 -3.5 1.125 C-2.5 0.125 -2.5 0.125 0 0 Z " fill="#3D7293" transform="translate(74.5,17.875)"/>
<path d="M0 0 C5.51405955 -0.84831685 8.67024834 1.18604983 13.00390625 4.27734375 C15.64945685 6.56049016 16.96403316 8.67010659 18 12 C17.67 12.99 17.34 13.98 17 15 C16.608125 14.46375 16.21625 13.9275 15.8125 13.375 C10.7759365 6.71318647 10.7759365 6.71318647 4 2 C3.236875 1.608125 2.47375 1.21625 1.6875 0.8125 C1.130625 0.544375 0.57375 0.27625 0 0 Z " fill="#EBF1F5" transform="translate(112,0)"/>
<path d="M0 0 C-2.0598307 4.82000384 -5.20609982 7.03670864 -10 9 C-13.3832294 9.38926361 -16.61330504 9.31229769 -20 9 C-20 8.67 -20 8.34 -20 8 C-19.22914063 7.97421875 -18.45828125 7.9484375 -17.6640625 7.921875 C-16.66117188 7.86515625 -15.65828125 7.8084375 -14.625 7.75 C-13.62726563 7.70359375 -12.62953125 7.6571875 -11.6015625 7.609375 C-8.86629025 7.28868454 -8.86629025 7.28868454 -7.76953125 5.0625 C-7.51558594 4.381875 -7.26164063 3.70125 -7 3 C-4.39680342 0.64872567 -3.57870074 0 0 0 Z " fill="#356E92" transform="translate(206,53)"/>
<path d="M0 0 C2.5 0.125 2.5 0.125 3.5 1.125 C3.54063832 2.79117115 3.542721 4.45888095 3.5 6.125 C1.5085944 6.50633299 -0.49279077 6.83825582 -2.5 7.125 C-3.5 6.125 -3.5 6.125 -3.625 3.625 C-3.45661291 0.25725827 -3.36774173 0.16838709 0 0 Z " fill="#2E6B92" transform="translate(159.5,2.875)"/>
<path d="M0 0 C0.598125 0.78375 1.19625 1.5675 1.8125 2.375 C4.32026935 5.38432322 5.88213885 6.85095185 9.8125 7.375 C13.76038325 6.91054315 15.87355474 5.38205353 19 3 C18.6875 4.875 18.6875 4.875 18 7 C13.76032983 9.82644678 9.97913141 9.65911947 5 9 C1.44319828 6.89495409 0.30531064 5.91593192 -1 2 C-0.67 1.34 -0.34 0.68 0 0 Z " fill="#E4EBF0" transform="translate(165,17)"/>
<path d="M0 0 C6.41083177 1.29929998 12.22189662 5.66984381 17 10 C17 10.66 17 11.32 17 12 C13.27955858 10.23186942 9.76819572 8.13411432 6.25 6 C5.64800781 5.64421875 5.04601562 5.2884375 4.42578125 4.921875 C2.91509904 4.00381869 1.45253405 3.00753807 0 2 C0 1.34 0 0.68 0 0 Z " fill="#E9F0F3" transform="translate(143,32)"/>
<path d="M0 0 C1.67542976 0.28604898 3.34385343 0.61781233 5 1 C5.625 2.875 5.625 2.875 6 5 C5.34 5.66 4.68 6.32 4 7 C1.375 6.625 1.375 6.625 -1 6 C-1.042721 4.33388095 -1.04063832 2.66617115 -1 1 C-0.67 0.67 -0.34 0.34 0 0 Z " fill="#27698F" transform="translate(168,189)"/>
<path d="M0 0 C4.86831281 0.45286631 7.48559226 1.58321469 11 5 C12.98201426 8.16438829 13.22240672 10.54854482 13.125 14.25 C13.10695313 15.14203125 13.08890625 16.0340625 13.0703125 16.953125 C13.03550781 17.96632812 13.03550781 17.96632812 13 19 C12.67 19 12.34 19 12 19 C12 16.03 12 13.06 12 10 C11.01 9.67 10.02 9.34 9 9 C8.566875 8.21625 8.13375 7.4325 7.6875 6.625 C5.59627953 3.37199038 3.50963927 2.48184769 0 1 C0 0.67 0 0.34 0 0 Z " fill="#3D7193" transform="translate(84,177)"/>
<path d="M0 0 C1.87576245 0.49025609 3.75120597 0.98176565 5.625 1.47949219 C9.71385576 2.37561066 13.82784417 2.4711878 18 2.625 C18.87011719 2.66367188 19.74023438 2.70234375 20.63671875 2.7421875 C22.75750486 2.83540887 24.87872185 2.91874136 27 3 C27 3.33 27 3.66 27 4 C19.08 4.33 11.16 4.66 3 5 C2.67 4.01 2.34 3.02 2 2 C1.01 1.67 0.02 1.34 -1 1 C-0.67 0.67 -0.34 0.34 0 0 Z " fill="#266085" transform="translate(91,159)"/>
<path d="M0 0 C-5.75 3 -5.75 3 -8 3 C-8 3.66 -8 4.32 -8 5 C-8.598125 5.12375 -9.19625 5.2475 -9.8125 5.375 C-12.26231348 5.95475985 -12.26231348 5.95475985 -15 8 C-17.1875 7.625 -17.1875 7.625 -19 7 C-5.74889868 -1.91629956 -5.74889868 -1.91629956 0 0 Z " fill="#DBE5EC" transform="translate(95,41)"/>
<path d="M0 0 C0.66 0.33 1.32 0.66 2 1 C0.60366572 5.44288181 -1.60401828 7.86524764 -5 11 C-5.33 11.33 -5.66 11.66 -6 12 C-7.68608966 12.07205511 -9.37500659 12.08386068 -11.0625 12.0625 C-11.98160156 12.05347656 -12.90070313 12.04445312 -13.84765625 12.03515625 C-14.55792969 12.02355469 -15.26820313 12.01195312 -16 12 C-16 11.67 -16 11.34 -16 11 C-15.32453125 10.91363281 -14.6490625 10.82726562 -13.953125 10.73828125 C-8.17744856 9.89283172 -8.17744856 9.89283172 -3.5 6.625 C-1.63687713 3.3698645 -1.63687713 3.3698645 0 0 Z " fill="#DCE6EC" transform="translate(205,185)"/>
<path d="M0 0 C6.47270316 -0.31096617 11.30672343 -0.50355481 17 3 C17.66 3 18.32 3 19 3 C19 4.32 19 5.64 19 7 C16.03538287 6.52566126 14.36873934 5.6115319 11.75 4 C7.86179241 1.67213602 4.48763211 1.31492155 0 1 C0 0.67 0 0.34 0 0 Z " fill="#E6EFF4" transform="translate(20,78)"/>
<path d="M0 0 C0.125 2.875 0.125 2.875 0 6 C-0.66 6.66 -1.32 7.32 -2 8 C-4.125 7.625 -4.125 7.625 -6 7 C-5.01 7 -4.02 7 -3 7 C-3.33 6.01 -3.66 5.02 -4 4 C-4.99 3.67 -5.98 3.34 -7 3 C-7 2.34 -7 1.68 -7 1 C-2.25 0 -2.25 0 0 0 Z " fill="#1E628A" transform="translate(14,118)"/>
<path d="M0 0 C3.87511727 0.54984772 5.59576506 2.27555331 8.25 5.0625 C8.95640625 5.79597656 9.6628125 6.52945313 10.390625 7.28515625 C10.92171875 7.85105469 11.4528125 8.41695312 12 9 C11.67 9.99 11.34 10.98 11 12 C10.62488281 11.55269531 10.24976563 11.10539062 9.86328125 10.64453125 C6.7158767 6.92631278 3.4956317 3.392819 0 0 Z " fill="#F0F5F8" transform="translate(148,52)"/>
<path d="M0 0 C0.598125 0.763125 1.19625 1.52625 1.8125 2.3125 C2.534375 3.199375 3.25625 4.08625 4 5 C4.4228125 5.53625 4.845625 6.0725 5.28125 6.625 C7.69296563 8.5543725 9.63735372 8.50807963 12.6875 8.6875 C13.68136719 8.75324219 14.67523438 8.81898438 15.69921875 8.88671875 C16.83810547 8.94279297 16.83810547 8.94279297 18 9 C18 9.33 18 9.66 18 10 C7.2146874 10.6192524 7.2146874 10.6192524 2.8125 8.375 C0.65880734 5.55291996 0.23934903 3.51045242 0 0 Z " fill="#C9D8E1" transform="translate(69,196)"/>
<path d="M0 0 C0 0.33 0 0.66 0 1 C-1.7325 1.3403125 -1.7325 1.3403125 -3.5 1.6875 C-8.28685883 2.85857082 -11.99040166 5.20607775 -16 8 C-12.68477636 0.62595115 -7.46431141 -0.5147801 0 0 Z " fill="#3B7292" transform="translate(195,168)"/>
<path d="M0 0 C0.99 0 1.98 0 3 0 C4.09587955 4.24551856 3.92865836 7.9592839 3.5625 12.3125 C3.46066406 13.56675781 3.35882813 14.82101563 3.25390625 16.11328125 C3.12822266 17.54220703 3.12822266 17.54220703 3 19 C2.67 19 2.34 19 2 19 C1.93941406 18.04738281 1.87882813 17.09476563 1.81640625 16.11328125 C1.73261719 14.85902344 1.64882812 13.60476562 1.5625 12.3125 C1.48128906 11.07113281 1.40007812 9.82976562 1.31640625 8.55078125 C1.05508683 5.61819663 0.65201621 2.86558383 0 0 Z " fill="#B4C9D7" transform="translate(212,121)"/>
<path d="M0 0 C0.80824219 0.11085937 1.61648437 0.22171875 2.44921875 0.3359375 C3.37154297 0.47902344 3.37154297 0.47902344 4.3125 0.625 C4.3125 1.615 4.3125 2.605 4.3125 3.625 C2.8754191 3.67922947 1.43774538 3.71789723 0 3.75 C-0.80050781 3.77320313 -1.60101563 3.79640625 -2.42578125 3.8203125 C-4.6875 3.625 -4.6875 3.625 -7.6875 1.625 C-4.33422361 -0.61051759 -3.78006343 -0.54783528 0 0 Z " fill="#17618B" transform="translate(86.6875,158.375)"/>
<path d="M0 0 C0 0.99 0 1.98 0 3 C-1.65 3 -3.3 3 -5 3 C-5 3.66 -5 4.32 -5 5 C-6.65 4.67 -8.3 4.34 -10 4 C-10 3.34 -10 2.68 -10 2 C-6.38026598 0.68373308 -3.90432869 0 0 0 Z " fill="#146392" transform="translate(182,19)"/>
<path d="M0 0 C1.98 0.495 1.98 0.495 4 1 C3.67 2.65 3.34 4.3 3 6 C1.68 5.67 0.36 5.34 -1 5 C-0.67 3.35 -0.34 1.7 0 0 Z " fill="#3E7696" transform="translate(20,117)"/>
<path d="M0 0 C3.3 0.33 6.6 0.66 10 1 C6 4 6 4 4 5 C4 6.65 4 8.3 4 10 C3.34 10 2.68 10 2 10 C1.77213542 7.98177083 1.54427083 5.96354167 1.31640625 3.9453125 C1.08707039 1.92595684 1.08707039 1.92595684 0 0 Z " fill="#B5C9D5" transform="translate(16,113)"/>
<path d="M0 0 C0 0.33 0 0.66 0 1 C-1.11375 1.309375 -2.2275 1.61875 -3.375 1.9375 C-6.7945155 2.82326483 -6.7945155 2.82326483 -9 4 C-10.99960012 4.039992 -13.00047242 4.04346799 -15 4 C-14.01 3.34 -13.02 2.68 -12 2 C-11.2575 1.443125 -10.515 0.88625 -9.75 0.3125 C-6.14153559 -1.40972165 -3.83704984 -0.82759899 0 0 Z " fill="#D9E4EC" transform="translate(128,40)"/>
<path d="M0 0 C0.99 0.33 1.98 0.66 3 1 C3.33692785 2.60341555 3.66941093 4.20776555 4 5.8125 C4.185625 6.70582031 4.37125 7.59914062 4.5625 8.51953125 C5 11 5 11 5 14 C4.34 14 3.68 14 3 14 C2.86722656 13.32453125 2.73445312 12.6490625 2.59765625 11.953125 C2.42105469 11.06109375 2.24445313 10.1690625 2.0625 9.25 C1.88847656 8.36828125 1.71445313 7.4865625 1.53515625 6.578125 C1.07631512 4.36764947 0.56663926 2.18487932 0 0 Z " fill="#F9FAFB" transform="translate(203,172)"/>
<path d="M0 0 C2.56616632 3.84924948 2.55097676 6.4349304 3 11 C2.67 10.01 2.34 9.02 2 8 C0.68 8 -0.64 8 -2 8 C-2.20086443 4.28400809 -2.1519437 3.22791555 0 0 Z " fill="#437B9F" transform="translate(180,74)"/>
<path d="M0 0 C4.95476478 4.79493366 4.95476478 4.79493366 5.09765625 8.6015625 C5.08605469 9.59929688 5.07445312 10.59703125 5.0625 11.625 C5.05347656 12.62789062 5.04445312 13.63078125 5.03515625 14.6640625 C5.02355469 15.43492188 5.01195312 16.20578125 5 17 C4.67 17 4.34 17 4 17 C3.96261719 16.41992188 3.92523438 15.83984375 3.88671875 15.2421875 C3.45809099 10.14908122 2.5386772 6.52546806 0 2 C0 1.34 0 0.68 0 0 Z " fill="#4E7D9B" transform="translate(204,32)"/>
<path d="M0 0 C0.33 0 0.66 0 1 0 C1.10957031 0.59167969 1.21914062 1.18335937 1.33203125 1.79296875 C2.25914403 6.41345763 3.22351335 10.0876779 6 14 C4.125 13.75 4.125 13.75 2 13 C0.08815774 10.02602316 -0.22778191 7.74458497 -0.125 4.25 C-0.10695312 3.45078125 -0.08890625 2.6515625 -0.0703125 1.828125 C-0.04710937 1.22484375 -0.02390625 0.6215625 0 0 Z " fill="#DAE6ED" transform="translate(4,95)"/>
<path d="M0 0 C-1.75 5.75 -1.75 5.75 -4 8 C-4.99 6.68 -5.98 5.36 -7 4 C-2.25 0 -2.25 0 0 0 Z " fill="#2D6E99" transform="translate(17,80)"/>
<path d="M0 0 C0.66 0.33 1.32 0.66 2 1 C-1.42388092 4.82669043 -4.00724943 6.72278474 -9 8 C-6.14723863 5.06799526 -3.34920216 2.35684596 0 0 Z " fill="#3C7597" transform="translate(71,37)"/>
<path d="M0 0 C3 2 3 2 4 5 C4.06802967 6.72795352 4.08495645 8.45835365 4.0625 10.1875 C4.05347656 11.08855469 4.04445312 11.98960938 4.03515625 12.91796875 C4.02355469 13.60503906 4.01195312 14.29210938 4 15 C3.67 15 3.34 15 3 15 C2.49564306 13.0636296 1.99666126 11.12585854 1.5 9.1875 C1.2215625 8.10855469 0.943125 7.02960937 0.65625 5.91796875 C0 3 0 3 0 0 Z " fill="#F8FAFB" transform="translate(207,33)"/>
<path d="M0 0 C0.33 0 0.66 0 1 0 C1.1875 2.875 1.1875 2.875 1 6 C-2 8 -2 8 -5.1875 7.625 C-6.115625 7.41875 -7.04375 7.2125 -8 7 C-8 6.01 -8 5.02 -8 4 C-7.67 4.33 -7.34 4.66 -7 5 C-5.33382885 5.04063832 -3.66611905 5.042721 -2 5 C-1.34 3.35 -0.68 1.7 0 0 Z " fill="#F0F4F7" transform="translate(79,19)"/>
<path d="M0 0 C0.66 0.66 1.32 1.32 2 2 C1.75 5.5625 1.75 5.5625 1 9 C0.01 9.495 0.01 9.495 -1 10 C-1.02689216 8.52093108 -1.04634621 7.04172517 -1.0625 5.5625 C-1.07410156 4.73878906 -1.08570313 3.91507813 -1.09765625 3.06640625 C-1 1 -1 1 0 0 Z " fill="#3F799A" transform="translate(172,170)"/>
<path d="M0 0 C0.33 1.32 0.66 2.64 1 4 C-0.65 4 -2.3 4 -4 4 C-4.66 5.32 -5.32 6.64 -6 8 C-6.33 6.35 -6.66 4.7 -7 3 C-3.375 0 -3.375 0 0 0 Z " fill="#E7EDF1" transform="translate(172,186)"/>
<path d="M0 0 C3.26460973 1.80412643 4.88929795 2.83394693 7 6 C4.92446352 6.5534764 3.15634036 7 1 7 C1.33 5.35 1.66 3.7 2 2 C1.34 2 0.68 2 0 2 C0 1.34 0 0.68 0 0 Z " fill="#28678F" transform="translate(118,3)"/>
<path d="M0 0 C0.66 0.66 1.32 1.32 2 2 C1.79107816 5.27310883 1.56305786 7.32433057 -0.5625 9.875 C-1.036875 10.24625 -1.51125 10.6175 -2 11 C-1.125 3.375 -1.125 3.375 0 0 Z " fill="#DCE6EC" transform="translate(51,80)"/>
<path d="M0 0 C1.32 0.33 2.64 0.66 4 1 C0.535 3.97 0.535 3.97 -3 7 C-3.66 6.67 -4.32 6.34 -5 6 C-3.35 4.02 -1.7 2.04 0 0 Z " fill="#F1F5F8" transform="translate(74,49)"/>
<path d="M0 0 C3.68754757 0.49831724 5.60490662 1.10067643 8 4 C7.67 4.99 7.34 5.98 7 7 C7 6.34 7 5.68 7 5 C6.21625 4.690625 5.4325 4.38125 4.625 4.0625 C2 3 2 3 0 2 C0 1.34 0 0.68 0 0 Z " fill="#E4ECF0" transform="translate(195,167)"/>
<path d="M0 0 C0.33 0 0.66 0 1 0 C1.4375 2.1875 1.4375 2.1875 1 5 C-1.13995327 6.98441782 -3.50175965 8.5023304 -6 10 C-6 7 -6 7 -3.5625 4.4375 C-2.716875 3.633125 -1.87125 2.82875 -1 2 C-0.67 1.34 -0.34 0.68 0 0 Z " fill="#E8EFF3" transform="translate(154,140)"/>
<path d="M0 0 C0 3 0 3 -1.6875 5.1875 C-4.3961577 7.31050198 -5.64708882 7.37254569 -9 7 C-8.1646875 6.38125 -8.1646875 6.38125 -7.3125 5.75 C-4.83804044 3.87743601 -2.4164771 1.94660656 0 0 Z " fill="#DCE5EC" transform="translate(205,55)"/>
<path d="M0 0 C1.12588014 0.95729916 2.2506715 1.91587895 3.375 2.875 C4.00148437 3.40867188 4.62796875 3.94234375 5.2734375 4.4921875 C6.55836651 5.61432007 7.79371975 6.79371975 9 8 C5.23293356 7.47679633 2.72611199 6.72611199 0 4 C0 2.68 0 1.36 0 0 Z " fill="#E9EFF4" transform="translate(175,53)"/>
<path d="M0 0 C0.556875 0.391875 1.11375 0.78375 1.6875 1.1875 C-0.90039062 2.26171875 -0.90039062 2.26171875 -3.48828125 3.3359375 C-5.57783932 4.25556692 -5.57783932 4.25556692 -8.3125 6.1875 C-8.125 4.375 -8.125 4.375 -7.3125 2.1875 C-3.21947674 -1.1311675 -3.21947674 -1.1311675 0 0 Z " fill="#E5EDF1" transform="translate(186.3125,25.8125)"/>
<path d="M0 0 C2.3431213 0.25561323 4.67843403 0.59270772 7 1 C7.33 1.66 7.66 2.32 8 3 C5.6875 3.625 5.6875 3.625 3 4 C2.01 3.34 1.02 2.68 0 2 C0 1.34 0 0.68 0 0 Z " fill="#156493" transform="translate(172,7)"/>
<path d="M0 0 C5.41538462 -0.36923077 5.41538462 -0.36923077 8.375 1.5 C8.91125 1.995 9.4475 2.49 10 3 C9.67 3.66 9.34 4.32 9 5 C8.01 4.67 7.02 4.34 6 4 C5.67 3.34 5.34 2.68 5 2 C2.47266765 1.34444881 2.47266765 1.34444881 0 1 C0 0.67 0 0.34 0 0 Z " fill="#2D678B" transform="translate(162,166)"/>
<path d="M0 0 C2.72426311 2.35277269 3.8141763 4.62496331 5 8 C1.125 6.125 1.125 6.125 0 5 C-0.04063832 3.33382885 -0.042721 1.66611905 0 0 Z " fill="#E0E9EF" transform="translate(160,62)"/>
<path d="M0 0 C3.25 -0.25 3.25 -0.25 7 0 C8.32 1.32 9.64 2.64 11 4 C7.37 3.01 3.74 2.02 0 1 C0 0.67 0 0.34 0 0 Z " fill="#4B7B9C" transform="translate(125,39)"/>
<path d="M0 0 C0.66 0 1.32 0 2 0 C1.67 1.32 1.34 2.64 1 4 C-0.65 4.33 -2.3 4.66 -4 5 C-4.33 4.01 -4.66 3.02 -5 2 C-2.525 2.495 -2.525 2.495 0 3 C0 2.01 0 1.02 0 0 Z " fill="#5886A1" transform="translate(172,191)"/>
<path d="M0 0 C3.0916909 2.52956528 3.90931332 5.22454612 5 9 C2 8 2 8 0.8125 6.1875 C0 4 0 4 0 0 Z " fill="#E4ECF0" transform="translate(39,123)"/>
<path d="M0 0 C3.465 1.98 3.465 1.98 7 4 C7 4.33 7 4.66 7 5 C5.02 5 3.04 5 1 5 C0.34 3.68 -0.32 2.36 -1 1 C-0.67 0.67 -0.34 0.34 0 0 Z " fill="#467998" transform="translate(4,122)"/>
<path d="M0 0 C0.99 0 1.98 0 3 0 C3 1.65 3 3.3 3 5 C1.68 5 0.36 5 -1 5 C-0.67 3.35 -0.34 1.7 0 0 Z " fill="#1A6191" transform="translate(73,18)"/>
<path d="M0 0 C0.33 0 0.66 0 1 0 C1.08131463 1.43655854 1.13933559 2.8744483 1.1875 4.3125 C1.23970703 5.51326172 1.23970703 5.51326172 1.29296875 6.73828125 C0.93801608 9.47851584 0.10633718 10.29171079 -2 12 C-1.855625 11.319375 -1.71125 10.63875 -1.5625 9.9375 C-0.93054091 6.63726918 -0.45686059 3.32855574 0 0 Z " fill="#2A698D" transform="translate(95,189)"/>
<path d="M0 0 C3.63 0 7.26 0 11 0 C11.33 0.99 11.66 1.98 12 3 C6.06 2.01 6.06 2.01 0 1 C0 0.67 0 0.34 0 0 Z " fill="#DCE6ED" transform="translate(20,78)"/>
</svg>
